<svg xmlns="http://www.w3.org/2000/svg" xmlns:xlink="http://www.w3.org/1999/xlink" fill="none" version="1.1" width="20.000091552734375" height="19.99969482421875" viewBox="0 0 20.000091552734375 19.99969482421875"><g style="mix-blend-mode:passthrough"><path d="M5.92,0C5.92,0,2.54,0,2.54,0C1.14,0,0,1.15,0,2.561C0,2.561,0,5.97,0,5.97C0,7.39,1.14,8.53,2.54,8.53C2.54,8.53,5.92,8.53,5.92,8.53C7.33,8.53,8.46,7.39,8.46,5.97C8.46,5.97,8.46,2.561,8.46,2.561C8.46,1.15,7.33,0,5.92,0ZM5.92,11.4697C5.92,11.4697,2.54,11.4697,2.54,11.4697C1.14,11.4697,0,12.6107,0,14.0307C0,14.0307,0,17.4397,0,17.4397C0,18.8497,1.14,19.9997,2.54,19.9997C2.54,19.9997,5.92,19.9997,5.92,19.9997C7.33,19.9997,8.46,18.8497,8.46,17.4397C8.46,17.4397,8.46,14.0307,8.46,14.0307C8.46,12.6107,7.33,11.4697,5.92,11.4697ZM17.4601,11.4697C17.4601,11.4697,14.0801,11.4697,14.0801,11.4697C12.6701,11.4697,11.5401,12.6107,11.5401,14.0307C11.5401,14.0307,11.5401,17.4397,11.5401,17.4397C11.5401,18.8497,12.6701,19.9997,14.0801,19.9997C14.0801,19.9997,17.4601,19.9997,17.4601,19.9997C18.8601,19.9997,20.0001,18.8497,20.0001,17.4397C20.0001,17.4397,20.0001,14.0307,20.0001,14.0307C20.0001,12.6107,18.8601,11.4697,17.4601,11.4697ZM17.4601,0C17.4601,0,14.0801,0,14.0801,0C12.6701,0,11.5401,1.15,11.5401,2.561C11.5401,2.561,11.5401,5.97,11.5401,5.97C11.5401,7.39,12.6701,8.53,14.0801,8.53C14.0801,8.53,17.4601,8.53,17.4601,8.53C18.8601,8.53,20.0001,7.39,20.0001,5.97C20.0001,5.97,20.0001,2.561,20.0001,2.561C20.0001,1.15,18.8601,0,17.4601,0Z" fill="#030229" fill-opacity="1"/></g></svg>