<svg xmlns="http://www.w3.org/2000/svg" xmlns:xlink="http://www.w3.org/1999/xlink" fill="none" version="1.1" width="14" height="14" viewBox="0 0 14 14"><g style="mix-blend-mode:passthrough"><g style="mix-blend-mode:passthrough"><path d="M8.7197,9.647870000000001C7.99376,10.18345,7.09635,10.5,6.125,10.5C3.70876,10.5,1.75,8.54124,1.75,6.125C1.75,3.70876,3.70876,1.75,6.125,1.75C8.54124,1.75,10.5,3.70876,10.5,6.125C10.5,7.0964,10.18342,7.99385,9.64779,8.719809999999999L11.8421,10.91405C12.0129,11.08494,12.0129,11.36196,11.8421,11.53276L11.53268,11.8422C11.36179,12.013,11.08485,12.013,10.91396,11.8422L8.7197,9.647870000000001ZM9.1875,6.125C9.1875,7.81638,7.81638,9.1875,6.125,9.1875C4.43363,9.1875,3.0625,7.81638,3.0625,6.125C3.0625,4.43363,4.43363,3.0625,6.125,3.0625C7.81638,3.0625,9.1875,4.43363,9.1875,6.125Z" fill-rule="evenodd" fill="#4E5969" fill-opacity="1"/></g></g></svg>