<svg xmlns="http://www.w3.org/2000/svg" xmlns:xlink="http://www.w3.org/1999/xlink" fill="none" version="1.1" width="12" height="12" viewBox="0 0 12 12"><defs><clipPath id="master_svg0_54_7855"><rect x="0" y="0" width="12" height="12" rx="0"/></clipPath></defs><g clip-path="url(#master_svg0_54_7855)"><g><path d="M9.5,5L10,5C10.27614,5,10.5,5.22386,10.5,5.5L10.5,10.5C10.5,10.77614,10.27614,11,10,11L2,11C1.723858,11,1.5,10.77614,1.5,10.5L1.5,5.5C1.5,5.22386,1.723858,5,2,5L2.5,5L2.5,4.5C2.5,2.567,4.067,1,6,1C7.933,1,9.5,2.567,9.5,4.5L9.5,5ZM8.5,5L8.5,4.5C8.5,3.11929,7.38071,2,6,2C4.6192899999999995,2,3.5,3.11929,3.5,4.5L3.5,5L8.5,5ZM5.5,7L5.5,9L6.5,9L6.5,7L5.5,7Z" fill="#FFFFFF" fill-opacity="1"/></g></g></svg>