<svg xmlns="http://www.w3.org/2000/svg" xmlns:xlink="http://www.w3.org/1999/xlink" fill="none" version="1.1" width="14" height="14" viewBox="0 0 14 14"><defs><clipPath id="master_svg0_62_9854"><rect x="0" y="0" width="14" height="14" rx="0"/></clipPath></defs><g clip-path="url(#master_svg0_62_9854)"><g><path d="M5.806605390625,1.2890890625C6.593485390625,1.1240831625,7.405985390625,1.1236859625,8.193025390625,1.2879220625C8.299235390625,1.9889960625,8.719005390625,2.6035190625,9.333445390625,2.9574190625C9.947395390625,3.3125590625,10.689715390625,3.3685990625,11.350025390625,3.1096690625C11.885675390625,3.7093790625,12.291475390625,4.4134390625,12.541775390625,5.1775890625C11.987975390625,5.6202190625,11.665875390625,6.2909690625,11.666775390625,6.9999190625C11.666775390625,7.7372590625,12.008575390625,8.3946690625,12.542975390625,8.822259062499999C12.291175390625,9.5857690625,11.884875390625,10.2892790625,11.349445390625,10.8890090625C10.689295390625,10.6302690625,9.947245390625,10.6863090625,9.333445390625,11.0412590625C8.719515390625,11.3950390625,8.300015390625,12.0090390625,8.193605390624999,12.7095390625C7.406815390625,12.8749390625,6.594305390625,12.8757390625,5.807195390625,12.7119390625C5.701485390625,12.0102390625,5.281655390625,11.3949390625,4.666775390625,11.0406690625C4.052725390625,10.6857290625,3.310415390625,10.6298990625,2.650195390625,10.8890090625C2.114457390625,10.2891290625,1.708695390625,9.5848590625,1.458441970625,8.820509062500001C2.011921390625,8.378129062500001,2.333950390625,7.7078790625,2.333442390625,6.9993390625C2.334022390625,6.2901890625,2.011511390625,5.6193990625,1.457275390625,5.1770090625C1.709081390625,4.4134890625,2.1153443906250002,3.7099790625,2.6507753906250002,3.1102590625C3.310925390625,3.3689890625,4.052975390625,3.3129490625,4.666775390625,2.9580090625C5.2806953906250005,2.6042190625,5.700205390625,1.9902070625000001,5.806605390625,1.2896720625L5.806605390625,1.2890890625ZM7.000105390625,8.7499190625C7.966605390625,8.7499190625,8.750105390625,7.9664190625,8.750105390625,6.9999190625C8.750105390625,6.0334190625,7.966605390625,5.2499190625,7.000105390625,5.2499190625C6.033605390625,5.2499190625,5.250105390625,6.0334190625,5.250105390625,6.9999190625C5.250105390625,7.9664190625,6.033605390625,8.7499190625,7.000105390625,8.7499190625Z" fill="#666666" fill-opacity="1"/></g></g></svg>