<svg xmlns="http://www.w3.org/2000/svg" xmlns:xlink="http://www.w3.org/1999/xlink" fill="none" version="1.1" width="375" height="363" viewBox="0 0 375 363"><defs><clipPath id="master_svg0_9_138"><rect x="0" y="0" width="375" height="363" rx="0"/></clipPath><filter id="master_svg1_9_146" filterUnits="objectBoundingBox" color-interpolation-filters="sRGB" x="-20" y="-16" width="134" height="57"><feFlood flood-opacity="0" result="BackgroundImageFix"/><feColorMatrix in="SourceAlpha" type="matrix" values="0 0 0 0 0 0 0 0 0 0 0 0 0 0 0 0 0 0 127 0"/><feOffset dy="4" dx="0"/><feGaussianBlur stdDeviation="5"/><feColorMatrix type="matrix" values="0 0 0 0 0 0 0 0 0 0 0 0 0 0 0 0 0 0 0.3019607961177826 0"/><feBlend mode="normal" in2="BackgroundImageFix" result="effect1_dropShadow"/><feBlend mode="normal" in="SourceGraphic" in2="effect1_dropShadow" result="shape"/></filter><filter id="master_svg2_9_139" filterUnits="objectBoundingBox" color-interpolation-filters="sRGB" x="0" y="0" width="116.00835418701172" height="150"><feFlood flood-opacity="0" result="BackgroundImageFix"/><feBlend mode="normal" in="SourceGraphic" in2="BackgroundImageFix" result="shape"/><feColorMatrix in="SourceAlpha" type="matrix" result="hardAlpha" values="0 0 0 0 0 0 0 0 0 0 0 0 0 0 0 0 0 0 127 0"/><feOffset dy="1" dx="0"/><feGaussianBlur stdDeviation="5"/><feComposite in2="hardAlpha" operator="arithmetic" k2="-1" k3="1"/><feColorMatrix type="matrix" values="0 0 0 0 1 0 0 0 0 1 0 0 0 0 1 0 0 0 1 0"/><feBlend mode="normal" in2="shape" result="effect1_innerShadow"/></filter><linearGradient x1="0.8890025019645691" y1="-0.013118082657456398" x2="0.11907100677490234" y2="0.9460217356681824" id="master_svg3_9_142"><stop offset="0%" stop-color="#FFFFFF" stop-opacity="1"/><stop offset="99.99998211860657%" stop-color="#A9BFFB" stop-opacity="1"/></linearGradient></defs><g clip-path="url(#master_svg0_9_138)"><rect x="0" y="0" width="375" height="363" rx="0" fill="#FFFFFF" fill-opacity="1"/><g><rect x="36" y="30" width="303" height="303" rx="50" fill="#2845D4" fill-opacity="1"/></g><g style="opacity:0.6000000238418579;"><path d="M107.5968,224.6034Q105,243.63139999999999,105,270L155,270Q155,247.0275,157.1376,231.3644Q159.45080000000002,214.4141,164.39,204.0271Q168.7057,194.9511,175.2207,190.828Q182.8495,186,196,186L230.297,186Q230.911,186,231.524,185.9699Q232.137,185.9398,232.748,185.8796Q233.35899999999998,185.8195,233.966,185.7294Q234.57299999999998,185.6394,235.175,185.5196Q235.777,185.3999,236.372,185.2508Q236.96699999999998,185.1017,237.554,184.9235Q238.142,184.7454,238.72,184.5386Q239.297,184.3319,239.864,184.097Q240.43099999999998,183.8621,240.986,183.59969999999998Q241.541,183.3373,242.082,183.048Q242.624,182.7587,243.15,182.4432Q243.676,182.1277,244.187,181.7867Q244.697,181.4458,245.19,181.0802Q245.683,180.7146,246.15699999999998,180.3253Q246.632,179.9359,247.086,179.5238Q247.541,179.1116,247.975,178.67770000000002Q248.409,178.2437,248.821,177.789Q249.233,177.3342,249.623,176.8598Q250.012,176.3854,250.378,175.8925Q250.743,175.3995,251.084,174.8893Q251.425,174.379,251.74099999999999,173.8526Q252.05599999999998,173.3262,252.345,172.7849Q252.635,172.2437,252.897,171.6889Q253.159,171.1341,253.394,170.56709Q253.62900000000002,170.00009,253.836,169.42225Q254.043,168.84441,254.221,168.25712Q254.399,167.66983,254.548,167.07451Q254.697,166.47919,254.817,165.87726Q254.937,165.27534,255.027,164.66827Q255.11700000000002,164.0612,255.17700000000002,163.45044Q255.237,162.83968,255.267,162.2267Q255.297,161.613725,255.297,161.00000943961Q255.297,160.386294,255.267,159.77332Q255.237,159.16034,255.17700000000002,158.54958Q255.11700000000002,157.93882,255.027,157.33175Q254.937,156.72468,254.817,156.12275Q254.697,155.52083,254.548,154.92551Q254.399,154.33018,254.221,153.74289Q254.043,153.1556,253.836,152.57776Q253.62900000000002,151.99992,253.394,151.43293Q253.159,150.8659,252.897,150.3111Q252.635,149.7563,252.345,149.2151Q252.05599999999998,148.6738,251.74099999999999,148.1474Q251.425,147.621,251.084,147.1108Q250.743,146.6005,250.378,146.1075Q250.012,145.6146,249.623,145.1402Q249.233,144.6658,248.821,144.211Q248.409,143.7563,247.975,143.32229999999998Q247.541,142.8884,247.086,142.4762Q246.632,142.0641,246.15699999999998,141.6747Q245.683,141.2854,245.19,140.9198Q244.697,140.5542,244.187,140.2133Q243.676,139.8723,243.15,139.5568Q242.624,139.2413,242.082,138.952Q241.541,138.6627,240.986,138.40030000000002Q240.43099999999998,138.1379,239.864,137.903Q239.297,137.6682,238.72,137.4614Q238.142,137.2547,237.554,137.0765Q236.96699999999998,136.8983,236.372,136.7492Q235.777,136.6001,235.175,136.4804Q234.57299999999998,136.3606,233.966,136.2706Q233.35899999999998,136.1805,232.748,136.1204Q232.137,136.0602,231.524,136.0301Q230.911,136,230.297,136L215.9244,136L196,136Q168.3572,136,148.48239999999998,148.578Q129.756407,160.428924,119.235,182.5554Q110.9603,199.9571,107.5968,224.6034Z" fill-rule="evenodd" fill="#FFFFFF" fill-opacity="1"/></g><g style="opacity:0.30000001192092896;"><path d="M107.5968,224.6034Q105,243.63139999999999,105,270L155,270Q155,247.0275,157.1376,231.3644Q159.45080000000002,214.4141,164.39,204.0271Q168.7057,194.9511,175.2207,190.828Q182.8495,186,196,186L230.297,186Q230.911,186,231.524,185.9699Q232.137,185.9398,232.748,185.8796Q233.35899999999998,185.8195,233.966,185.7294Q234.57299999999998,185.6394,235.175,185.5196Q235.777,185.3999,236.372,185.2508Q236.96699999999998,185.1017,237.554,184.9235Q238.142,184.7454,238.72,184.5386Q239.297,184.3319,239.864,184.097Q240.43099999999998,183.8621,240.986,183.59969999999998Q241.541,183.3373,242.082,183.048Q242.624,182.7587,243.15,182.4432Q243.676,182.1277,244.187,181.7867Q244.697,181.4458,245.19,181.0802Q245.683,180.7146,246.15699999999998,180.3253Q246.632,179.9359,247.086,179.5238Q247.541,179.1116,247.975,178.67770000000002Q248.409,178.2437,248.821,177.789Q249.233,177.3342,249.623,176.8598Q250.012,176.3854,250.378,175.8925Q250.743,175.3995,251.084,174.8893Q251.425,174.379,251.74099999999999,173.8526Q252.05599999999998,173.3262,252.345,172.7849Q252.635,172.2437,252.897,171.6889Q253.159,171.1341,253.394,170.56709Q253.62900000000002,170.00009,253.836,169.42225Q254.043,168.84441,254.221,168.25712Q254.399,167.66983,254.548,167.07451Q254.697,166.47919,254.817,165.87726Q254.937,165.27534,255.027,164.66827Q255.11700000000002,164.0612,255.17700000000002,163.45044Q255.237,162.83968,255.267,162.2267Q255.297,161.613725,255.297,161.00000943961Q255.297,160.386294,255.267,159.77332Q255.237,159.16034,255.17700000000002,158.54958Q255.11700000000002,157.93882,255.027,157.33175Q254.937,156.72468,254.817,156.12275Q254.697,155.52083,254.548,154.92551Q254.399,154.33018,254.221,153.74289Q254.043,153.1556,253.836,152.57776Q253.62900000000002,151.99992,253.394,151.43293Q253.159,150.8659,252.897,150.3111Q252.635,149.7563,252.345,149.2151Q252.05599999999998,148.6738,251.74099999999999,148.1474Q251.425,147.621,251.084,147.1108Q250.743,146.6005,250.378,146.1075Q250.012,145.6146,249.623,145.1402Q249.233,144.6658,248.821,144.211Q248.409,143.7563,247.975,143.32229999999998Q247.541,142.8884,247.086,142.4762Q246.632,142.0641,246.15699999999998,141.6747Q245.683,141.2854,245.19,140.9198Q244.697,140.5542,244.187,140.2133Q243.676,139.8723,243.15,139.5568Q242.624,139.2413,242.082,138.952Q241.541,138.6627,240.986,138.40030000000002Q240.43099999999998,138.1379,239.864,137.903Q239.297,137.6682,238.72,137.4614Q238.142,137.2547,237.554,137.0765Q236.96699999999998,136.8983,236.372,136.7492Q235.777,136.6001,235.175,136.4804Q234.57299999999998,136.3606,233.966,136.2706Q233.35899999999998,136.1805,232.748,136.1204Q232.137,136.0602,231.524,136.0301Q230.911,136,230.297,136L215.9244,136L196,136Q168.3572,136,148.48239999999998,148.578Q129.756407,160.428924,119.235,182.5554Q110.9603,199.9571,107.5968,224.6034Z" fill-rule="evenodd" fill="#FFFFFF" fill-opacity="1"/></g><g filter="url(#master_svg1_9_146)"><rect x="150" y="129" width="94" height="17" rx="0" fill="#D8D8D8" fill-opacity="1"/></g><g filter="url(#master_svg2_9_139)"><path d="M104.72421582031251,254.671Q105.0000158203125,264.788,105.0000158203125,273L155.0000158203125,273Q155.0000158203125,264.106,154.7056158203125,253.309Q154.5323158203125,246.953,154.0828158203125,234.711Q153.5124158203125,219.1797,153.3832158203125,211.958Q153.1771158203125,200.4341,153.5584158203125,192.1695Q154.3837158203125,174.2813,158.2755158203125,164.7724Q159.9607158203125,160.655,162.2846158203125,157.91140000000001Q164.5346158203125,155.255,167.8440158203125,153.399Q177.4711158203125,148,196.8717158203125,148L244.31671582031248,148Q244.9307158203125,148,245.5437158203125,147.9699Q246.1567158203125,147.9398,246.7677158203125,147.8796Q247.3787158203125,147.8195,247.98571582031252,147.7294Q248.5927158203125,147.6394,249.1947158203125,147.5196Q249.7967158203125,147.3999,250.3917158203125,147.2508Q250.9867158203125,147.1017,251.5737158203125,146.9235Q252.1617158203125,146.7454,252.73971582031248,146.5386Q253.31671582031248,146.3318,253.8837158203125,146.097Q254.4507158203125,145.8621,255.0057158203125,145.59969999999998Q255.5607158203125,145.3373,256.1017158203125,145.048Q256.64371582031254,144.7587,257.1697158203125,144.4432Q257.6957158203125,144.1277,258.2067158203125,143.7867Q258.7167158203125,143.4458,259.2097158203125,143.0802Q259.7027158203125,142.7146,260.1767158203125,142.3253Q260.65171582031246,141.9359,261.1057158203125,141.5238Q261.5607158203125,141.1116,261.99471582031254,140.67770000000002Q262.4287158203125,140.2437,262.84071582031254,139.789Q263.25271582031246,139.3342,263.6427158203125,138.8598Q264.0317158203125,138.3854,264.3977158203125,137.8925Q264.7627158203125,137.3995,265.10371582031246,136.8893Q265.44471582031247,136.379,265.7607158203125,135.8526Q266.0757158203125,135.3262,266.36471582031254,134.7849Q266.6547158203125,134.2437,266.9167158203125,133.6889Q267.1787158203125,133.1341,267.4137158203125,132.56708Q267.64871582031253,132.00008,267.8557158203125,131.42224Q268.0627158203125,130.8444,268.2407158203125,130.25712Q268.4187158203125,129.66983,268.5677158203125,129.0745Q268.7167158203125,128.47918,268.8367158203125,127.87726Q268.9567158203125,127.27533,269.0467158203125,126.66826Q269.1367158203125,126.06119,269.19671582031253,125.45043Q269.2567158203125,124.83967,269.2867158203125,124.22669Q269.31671582031254,123.613715,269.31671582031254,123Q269.31671582031254,122.386285,269.2867158203125,121.77331Q269.2567158203125,121.16033,269.19671582031253,120.54957Q269.1367158203125,119.93881,269.0467158203125,119.33174Q268.9567158203125,118.72467,268.8367158203125,118.12274Q268.7167158203125,117.52082,268.5677158203125,116.9255Q268.4187158203125,116.33017,268.2407158203125,115.74288Q268.0627158203125,115.15559999999999,267.8557158203125,114.57776Q267.64871582031253,113.99992,267.4137158203125,113.43292Q267.1787158203125,112.8659,266.9167158203125,112.3111Q266.6547158203125,111.7563,266.36471582031254,111.2151Q266.0757158203125,110.6738,265.7607158203125,110.1474Q265.44471582031247,109.621,265.10371582031246,109.1107Q264.7627158203125,108.6005,264.3977158203125,108.1075Q264.0317158203125,107.6146,263.6427158203125,107.1402Q263.25271582031246,106.6658,262.84071582031254,106.211Q262.4287158203125,105.7563,261.99471582031254,105.3223Q261.5607158203125,104.8884,261.1057158203125,104.4762Q260.65171582031246,104.0641,260.1767158203125,103.6747Q259.7027158203125,103.2854,259.2097158203125,102.9198Q258.7167158203125,102.55420000000001,258.2067158203125,102.2133Q257.6957158203125,101.8723,257.1697158203125,101.5568Q256.64371582031254,101.2413,256.1017158203125,100.952Q255.5607158203125,100.6627,255.0057158203125,100.4003Q254.4507158203125,100.1379,253.8837158203125,99.90299999999999Q253.31671582031248,99.6682,252.73971582031248,99.4614Q252.1617158203125,99.2546,251.5737158203125,99.0765Q250.9867158203125,98.8983,250.3917158203125,98.7492Q249.7967158203125,98.6001,249.1947158203125,98.4804Q248.5927158203125,98.3606,247.98571582031252,98.2706Q247.3787158203125,98.1805,246.7677158203125,98.1204Q246.1567158203125,98.0602,245.5437158203125,98.0301Q244.9307158203125,98,244.31671582031248,98L196.8717158203125,98Q164.4079158203125,98,143.3869158203125,109.7888Q121.7984358203125,121.89586,112.0013158203125,145.8331Q108.0190158203125,155.563,105.9233158203125,167.5475Q104.1816158203125,177.5081,103.6115158203125,189.86520000000002Q103.1565158203125,199.7284,103.3912158203125,212.8523Q103.5288158203125,220.5442,104.1164158203125,236.546Q104.5573158203125,248.55200000000002,104.72421582031251,254.671Z" fill-rule="evenodd" fill="url(#master_svg3_9_142)" fill-opacity="1"/></g></g></svg>