<svg xmlns="http://www.w3.org/2000/svg" xmlns:xlink="http://www.w3.org/1999/xlink" fill="none" version="1.1" width="24" height="24" viewBox="0 0 24 24"><g style="opacity:0.4000000059604645;mix-blend-mode:passthrough"><g style="mix-blend-mode:passthrough"><g style="mix-blend-mode:passthrough"><path d="M7.81,2C7.81,2,16.191000000000003,2,16.191000000000003,2C19.28,2,21,3.7800000000000002,21,6.83C21,6.83,21,17.16,21,17.16C21,20.26,19.28,22,16.191000000000003,22C16.191000000000003,22,7.81,22,7.81,22C4.77,22,3,20.26,3,17.16C3,17.16,3,6.83,3,6.83C3,3.7800000000000002,4.77,2,7.81,2C7.81,2,7.81,2,7.81,2ZM8.08,6.66C8.08,6.66,8.08,6.65,8.08,6.65C8.08,6.65,11.069,6.65,11.069,6.65C11.5,6.65,11.85,7,11.85,7.429C11.85,7.87,11.5,8.219999999999999,11.069,8.219999999999999C11.069,8.219999999999999,8.08,8.219999999999999,8.08,8.219999999999999C7.649,8.219999999999999,7.3,7.87,7.3,7.44C7.3,7.01,7.649,6.66,8.08,6.66C8.08,6.66,8.08,6.66,8.08,6.66ZM8.08,12.74C8.08,12.74,15.92,12.74,15.92,12.74C16.35,12.74,16.7,12.39,16.7,11.96C16.7,11.53,16.35,11.179,15.92,11.179C15.92,11.179,8.08,11.179,8.08,11.179C7.649,11.179,7.3,11.53,7.3,11.96C7.3,12.39,7.649,12.74,8.08,12.74C8.08,12.74,8.08,12.74,8.08,12.74ZM8.08,17.310000000000002C8.08,17.310000000000002,15.92,17.310000000000002,15.92,17.310000000000002C16.319000000000003,17.27,16.619999999999997,16.929000000000002,16.619999999999997,16.53C16.619999999999997,16.119999999999997,16.319000000000003,15.78,15.92,15.74C15.92,15.74,8.08,15.74,8.08,15.74C7.78,15.71,7.49,15.85,7.33,16.11C7.17,16.36,7.17,16.689999999999998,7.33,16.95C7.49,17.2,7.78,17.35,8.08,17.310000000000002C8.08,17.310000000000002,8.08,17.310000000000002,8.08,17.310000000000002Z" fill-rule="evenodd" fill="#030229" fill-opacity="1"/></g></g></g></svg>